<svg width="50" height="51" viewBox="0 0 50 51" fill="none" xmlns="http://www.w3.org/2000/svg">
<rect width="50" height="50" transform="translate(0 0.5)" fill="white"/>
<rect width="50" height="50" transform="translate(0 0.5)" fill="white"/>
<g clip-path="url(#clip0_122_378)">
<path d="M30.7005 31.2459C30.4144 28.4639 29.0666 25.7433 26.9067 23.5833C22.4082 19.0887 15.7402 18.4398 12.0423 22.1434C8.34259 25.8431 8.98769 32.5112 13.4842 37.0077C15.6442 39.1677 18.3648 40.5155 21.1468 40.8035C21.5173 40.8399 21.8841 40.8591 22.2431 40.8591C24.6354 40.8591 26.7723 40.0201 28.3466 38.4457C30.1591 36.6352 30.9962 34.0778 30.7005 31.2459ZM24.1208 33.5287C22.6463 32.4036 21.0508 31.9582 19.3152 31.484C14.9492 30.2859 12.7815 26.6438 12.2727 22.3738C13.5034 23.8579 14.4116 25.5513 15.9226 26.7935C17.5315 28.1164 19.3017 28.5983 21.2485 29.1627C25.5205 30.403 27.6324 34.0145 28.1201 38.2173C26.7857 36.6141 25.8065 34.817 24.1208 33.5287Z" fill="#3780FF"/>
<path d="M37.958 12.5439C34.2601 8.84226 27.5921 9.48929 23.0936 13.9839C21.8956 15.182 20.9778 16.5605 20.3231 18.0177C22.4735 18.3883 24.5566 19.2868 26.4036 20.6366C27.1063 20.195 27.8724 19.8167 28.7537 19.5614C30.6986 18.9969 32.4707 18.5169 34.0796 17.1922C35.5887 15.95 36.4969 14.2546 37.7295 12.7724C37.2226 17.0424 35.0531 20.6846 30.6871 21.8826C29.9498 22.0842 29.2433 22.2916 28.554 22.5373C30.6352 24.7299 32.0061 27.4006 32.4841 30.1788C33.9414 29.5221 35.3218 28.6063 36.5199 27.4083C41.0107 22.9117 41.6577 16.2437 37.958 12.5439Z" fill="#3780FF"/>
</g>
<defs>
<clipPath id="clip0_122_378">
<rect width="30.72" height="30.72" fill="white" transform="translate(9.64 10.1396)"/>
</clipPath>
</defs>
</svg>
