<svg width="50" height="51" viewBox="0 0 50 51" fill="none" xmlns="http://www.w3.org/2000/svg">
<rect width="50" height="50" transform="translate(0 0.5)" fill="white"/>
<rect width="50" height="50" transform="translate(0 0.5)" fill="white"/>
<g clip-path="url(#clip0_1_188)">
<path d="M30.7005 31.2464C30.4144 28.4644 29.0666 25.7438 26.9067 23.5838C22.4082 19.0892 15.7402 18.4403 12.0423 22.1439C8.34259 25.8436 8.98769 32.5116 13.4842 37.0082C15.6442 39.1681 18.3648 40.5159 21.1468 40.8039C21.5173 40.8404 21.8841 40.8596 22.2431 40.8596C24.6354 40.8596 26.7723 40.0206 28.3466 38.4462C30.1591 36.6357 30.9962 34.0783 30.7005 31.2464ZM24.1208 33.5292C22.6463 32.4041 21.0508 31.9587 19.3152 31.4845C14.9492 30.2864 12.7815 26.6442 12.2727 22.3743C13.5034 23.8584 14.4116 25.5518 15.9226 26.794C17.5315 28.1169 19.3017 28.5988 21.2485 29.1632C25.5205 30.4035 27.6324 34.015 28.1201 38.2178C26.7857 36.6146 25.8065 34.8175 24.1208 33.5292Z" fill="#3780FF"/>
<path d="M37.958 12.5439C34.2601 8.84226 27.5921 9.48929 23.0936 13.9839C21.8956 15.182 20.9778 16.5605 20.3231 18.0177C22.4735 18.3883 24.5566 19.2868 26.4036 20.6366C27.1063 20.195 27.8724 19.8167 28.7537 19.5614C30.6986 18.9969 32.4707 18.5169 34.0796 17.1922C35.5887 15.95 36.4969 14.2546 37.7295 12.7724C37.2226 17.0424 35.0531 20.6846 30.6871 21.8826C29.9498 22.0842 29.2433 22.2916 28.554 22.5373C30.6352 24.7299 32.0061 27.4006 32.4841 30.1788C33.9414 29.5221 35.3218 28.6063 36.5199 27.4083C41.0107 22.9117 41.6577 16.2437 37.958 12.5439Z" fill="#3780FF"/>
</g>
<defs>
<clipPath id="clip0_1_188">
<rect width="30.72" height="30.72" fill="white" transform="translate(9.64 10.1401)"/>
</clipPath>
</defs>
</svg>
